<?xml version="1.0" standalone="no"?>
<!DOCTYPE svg PUBLIC "-//W3C//DTD SVG 20010904//EN"
 "http://www.w3.org/TR/2001/REC-SVG-20010904/DTD/svg10.dtd">
<svg version="1.0" xmlns="http://www.w3.org/2000/svg"
 width="64.000000pt" height="64.000000pt" viewBox="0 0 64.000000 64.000000"
 preserveAspectRatio="xMidYMid meet">

<g transform="translate(0.000000,64.000000) scale(0.100000,-0.100000)"
fill="#000000" stroke="none">
<path d="M212 583 c-59 -21 -135 -99 -156 -159 -20 -61 -20 -147 0 -208 22
-65 97 -139 164 -161 65 -22 169 -17 225 10 50 25 105 80 130 130 27 56 32
160 10 225 -22 67 -96 142 -161 164 -59 20 -155 19 -212 -1z m223 -31 c47 -24
95 -73 121 -122 27 -52 26 -172 -3 -226 -35 -66 -48 -71 -62 -24 -24 82 -87
130 -171 130 -84 0 -147 -48 -171 -130 -14 -47 -27 -42 -62 24 -29 54 -30 174
-3 226 35 67 95 118 166 141 41 14 142 3 185 -19z m-46 -282 c49 -24 81 -75
81 -127 0 -37 -3 -41 -42 -59 -57 -26 -159 -26 -216 0 -39 18 -42 22 -42 60 0
53 29 100 77 125 49 26 94 26 142 1z"/>
<path d="M273 508 c-36 -17 -57 -72 -43 -113 28 -85 150 -87 179 -2 29 82 -55
154 -136 115z m100 -36 c47 -42 -10 -137 -70 -116 -38 13 -60 55 -48 91 18 51
75 63 118 25z"/>
</g>
</svg>
