<?xml version="1.0" standalone="no"?>
<!DOCTYPE svg PUBLIC "-//W3C//DTD SVG 20010904//EN"
 "http://www.w3.org/TR/2001/REC-SVG-20010904/DTD/svg10.dtd">
<svg version="1.0" xmlns="http://www.w3.org/2000/svg"
 width="64.000000pt" height="64.000000pt" viewBox="0 0 64.000000 64.000000"
 preserveAspectRatio="xMidYMid meet">

<g transform="translate(0.000000,64.000000) scale(0.100000,-0.100000)"
fill="#000000" stroke="none">
<path d="M250 571 c-71 -23 -131 -74 -166 -141 -27 -52 -26 -172 3 -226 35
-66 48 -71 62 -24 24 82 87 130 171 130 84 0 147 -48 171 -130 14 -47 27 -42
62 24 29 54 30 174 3 226 -26 49 -74 98 -121 122 -43 22 -144 33 -185 19z
m120 -66 c37 -19 54 -69 39 -112 -29 -85 -151 -83 -179 1 -13 41 -2 75 36 105
31 25 64 27 104 6z"/>
<path d="M290 487 c-56 -28 -48 -110 13 -131 22 -8 33 -6 55 11 68 50 8 158
-68 120z"/>
<path d="M248 270 c-46 -25 -78 -76 -78 -127 0 -37 3 -41 42 -59 57 -26 159
-26 216 0 39 18 42 22 42 59 0 52 -32 103 -81 127 -48 25 -93 25 -141 0z"/>
</g>
</svg>
